<?xml version="1.0" encoding="utf-8"?>
<!-- Generator: Adobe Illustrator 15.0.2, SVG Export Plug-In . SVG Version: 6.00 Build 0)  -->
<!DOCTYPE svg PUBLIC "-//W3C//DTD SVG 1.1//EN" "http://www.w3.org/Graphics/SVG/1.1/DTD/svg11.dtd">
<svg version="1.1" id="IL" xmlns="http://www.w3.org/2000/svg" xmlns:xlink="http://www.w3.org/1999/xlink" x="0px" y="0px"
	 width="373.822px" height="465px" viewBox="0 0 373.822 465" enable-background="new 0 0 373.822 465" xml:space="preserve">
<g>
	<g>
		<path fill="#204593" d="M14.242,398.458c0,0.793-0.638,1.426-1.429,1.426H1.428c-0.791,0-1.429-0.633-1.429-1.426v-28.183
			c0-0.789,0.638-1.434,1.429-1.434h11.387c0.791,0,1.429,0.645,1.429,1.434L14.242,398.458L14.242,398.458z"/>
		<path fill="#204593" d="M302.356,398.46c0,0.781-0.668,1.426-1.489,1.426h-11.9c-0.821,0-1.5-0.645-1.5-1.426v-28.287
			c0-0.789,0.679-1.434,1.5-1.434h11.9c0.821,0,1.489,0.645,1.489,1.434V398.46z"/>
		<path fill="#204593" d="M357.492,376.916V354.8c0-0.805,0.736-1.457,1.643-1.457h13.059c0.898,0,1.629,0.652,1.629,1.457v22.115
			v21.521c0,0.8-0.729,1.449-1.629,1.449h-13.059c-0.904,0-1.643-0.649-1.643-1.449V376.916z"/>
		<path fill="#204593" d="M20.492,397.802v-26.854c0,0,0-2.162,4.323-2.162h27.806c0,0,3.674-0.22,3.889,1.942
			c0.224,2.172,0.185,25.371,0.224,26.759c0.024,1.377-2.116,2.51-4.498,2.51h-7.276c0,0-3.429-0.326-3.429-2.055v-18.439
			c0,0-0.432-3.246-3.678-3.246c-3.896-0.219-3.896,3.464-3.896,3.464s0.051,17.837,0,18.29c-0.049,0.453-0.771,2.062-2.933,1.849
			c-2.215,0-6.81,0-6.81,0S21.139,400.173,20.492,397.802"/>
		<path fill="#204593" d="M148.748,370.787v27.029c0,0,0,2.168-4.679,2.168h-30.067c0,0-3.978,0.217-4.207-1.953
			c-0.244-2.164-0.203-25.4-0.244-26.793c-0.024-1.377,2.285-2.51,4.863-2.51h7.877c0,0,3.705,0.317,3.705,2.059v19.26
			c0,0,0.467,3.256,3.971,3.256c4.214,0.219,4.214-3.471,4.214-3.471s-0.052-18.803,0-19.256c0.055-0.461,0.823-1.848,3.18-1.848
			h7.361C144.721,368.729,148.045,368.404,148.748,370.787"/>
		<path fill="#204593" d="M64.172,395.891v-23.963c0,0,0-3.246,4.545-3.246h15.779c0,0,3.687,0.223,3.897-2.377v-9.517
			c0,0-0.683-3.459,4.114-3.457h7.568c0,0,3.459-0.218,3.459,4.104v38.455c0,0-0.65,4.317-3.683,4.102h-30.92
			C68.936,399.99,64.172,400.208,64.172,395.891 M83.852,392.205c3.678,0.221,4.543-1.729,4.543-1.729l0.211-12.104
			c0-2.6-4.754-2.6-4.754-2.6s-3.67,0.221-3.67,2.158c-0.011,2.813,0,12.327,0,12.327S80.609,392.205,83.852,392.205"/>
		<path fill="#204593" d="M154.67,385.087c0,0,0.285-12.351,0.117-13.668c-0.06-0.5,0.892-2.733,3.183-2.733h31.285
			c0,0,2.716,0.024,2.981,1.58c0.347,1.897,0.06,5.483,0.06,5.483s-0.354,1.586-2.812,1.586h-18.285c0,0-2.462-0.172-2.462,1.761
			c0.179,2.817,2.287,2.12,2.287,2.12l18.64,0.181c0,0,2.801,0.524,2.633,2.985l-0.133,11.254c0,0,0,4.354-3.16,4.354h-31.995
			c0,0-2.633-0.525-2.633-2.283c0-1.756-0.051-4.359-0.051-4.359s-0.175-1.582,2.282-1.582h18.285c0,0,2.106-0.701,2.106-2.117
			c-0.176-1.75-2.106-2.1-2.106-2.1h-17.399C157.492,387.548,154.67,387.195,154.67,385.087"/>
		<path fill="#204593" d="M202.45,374.562c0,0-4.13,0.272-4.13-2.48v-15.141c0,0,0.55-3.578,3.589-3.578
			c3.024,0,7.172-0.043,8.053,0c0.89,0.029,2.974,1.102,2.974,3.303v9.354c0,0-0.549,2.754,2.476,2.754H233.6
			c0,0,2.896-0.93,2.762,3.621c-0.09,2.754,0.546,4.131-3.03,4.131h-9.927c0,0-2.752,0-2.752,3.588v6.828c0,0,0,3.025,3.308,3.025
			c3.304,0,5.979-0.111,7.722-0.111c1.752,0,2.571,4.316,2.571,6.244c0.313,2.371-0.644,3.894-3.403,3.894h-21.771
			c0,0-2.763-0.822-2.763-4.97V377.87C206.313,377.867,206.313,374.562,202.45,374.562"/>
		<path fill="#204593" d="M243.211,396.312c0,0-0.321,3.573,3.414,3.573h7.442c0,0,3.72-0.291,3.72-3.274v-16.576
			c0,0-0.729-3.301,4.353-3.283c5.896,0.02,4.342,2.688,4.342,2.688s-0.254,4.016,2.797,4.17c4.646,0.248,5.119,0.17,7.099,0
			c1.981-0.154,4.207-0.834,4.207-4.117c0-3.281-0.14-6.324-0.14-6.324s0.615-4.48-3.717-4.48h-29.354c0,0-4.16,0.896-4.16,4.48
			L243.211,396.312L243.211,396.312z"/>
		<path fill="#204593" d="M313.826,376.432c0,0-4.207,0.274-4.207-1.974v-3.545v0.789c0,0,0-2.964,4.434-2.964h31.748
			c0,0,4.877,0.397,4.877,4.533v23.179c0,0-0.23,3.539-4.877,3.539h-31.531c0,0-4.871-0.396-4.871-3.74v-11.606
			c0,0-0.883-3.148,3.98-3.148h9.355c1.471,0,3.057,0.982,3.057,3.545c0,2.559,0.221,4.52,0.221,4.52s-0.221,2.949,3.324,2.949
			c4.646,0,7.398,0.271,7.492-2.82l0.033-9.117c0,0,0.008-3.944-4.871-3.944C327.117,376.623,313.826,376.432,313.826,376.432"/>
	</g>
	<g>
		<path fill="#204593" d="M229.563,463.554c0,0.804-0.646,1.445-1.437,1.445h-11.465c-0.793,0-1.437-0.643-1.437-1.445v-28.399
			c0-0.791,0.644-1.431,1.437-1.431h11.465c0.789,0,1.437,0.64,1.437,1.431V463.554z"/>
		<path fill="#204593" d="M204.792,443.886c0,0,3.545-1.721,3.545-4.459v-3.51v0.779c0,0,0-2.933-3.866-2.933H174.88
			c0,0-4.258,0.396-4.258,4.494v23.226c0,0,0.196,3.516,4.258,3.516h29.396c0,0,4.25-0.396,4.25-3.713v-10.146
			c0,0,0.781-3.125-3.473-3.125h-8.164c-1.289,0-2.666,0.982-2.666,3.521c0,2.529-0.197,3.104-0.197,3.104s0.197,2.933-2.899,2.933
			c-4.06,0-6.452,0.453-6.545-2.607l-0.033-7.334c0,0,0-3.91,4.259-3.91C193.064,443.722,204.792,443.886,204.792,443.886"/>
		<path fill="#204593" d="M164.301,461.328c0,2.029-1.641,3.672-3.672,3.672h-33.688c-2.032,0-3.68-1.643-3.68-3.672v-23.916
			c0-2.033,1.646-3.685,3.68-3.685h33.688c2.031,0,3.672,1.65,3.672,3.685V461.328z M143.092,457.576
			c4.31,0,4.767-2.916,4.767-2.916l0.16-9.535c0,0-0.468-2.768-4.619-2.768c-4.146,0-5.067,2.454-5.067,2.454v9.849
			C138.33,454.66,138.787,457.576,143.092,457.576"/>
		<path fill="#204593" d="M235.631,438.027c0,0-0.307-4.369,4.254-4.261c0,0,27.279,0,29.521,0c2.236,0,3.896,1.16,3.896,3.998
			s-0.441,4.427-4.072,4.427h-13.651c0,0-4.078,0-4.078,2.129v10.537c0,0,0.177,3.016,4.078,3.016h13.827
			c0,0,3.938-0.256,3.896,3.371c-0.035,2.658-1.177,3.668-3.896,3.719c-3.905,0.082-29.784,0-29.784,0s-3.896,0.176-3.896-3.016
			C235.727,458.763,235.631,438.027,235.631,438.027"/>
		<path fill="#204593" d="M100.518,441.925V419.81c0-0.807,0.733-1.457,1.64-1.457h13.062c0.896,0,1.629,0.65,1.629,1.457v22.115
			v21.521c0,0.797-0.732,1.446-1.629,1.446h-13.062c-0.904,0-1.64-0.649-1.64-1.446V441.925z"/>
	</g>
</g>
<g>
	<path id="Base_1_" fill="#ED1F24" d="M346.737,183.181l4.613-24.909l-19.684-7.23l0.967-15.435l-22.084-8.063l-16.714,9.603
		l-4.979-1.83l0.728-15.093l-19.726-6.326l-9.297,4.256c-0.308-2.34-0.31-4.555-0.31-4.555l34.418-14.464l1.24-23.695l-22.578-6.823
		l-9.606,3.662l4.213-50.133l-14.791-2.821l1.229-15.2L230.62,0l-21.527,2.814v8.499L186.9,6.955l-22.193,4.358V2.814L143.178,0
		l-23.76,4.123l1.229,15.2l-14.79,2.821l4.212,50.133l-9.605-3.662l-22.577,6.823l1.239,23.695l34.416,14.464
		c0,0-0.001,2.215-0.31,4.555l-9.296-4.256l-19.727,6.326l0.729,15.093l-4.979,1.83l-16.713-9.603l-22.082,8.063l0.966,15.435
		l-19.683,7.23l4.612,24.909l-23.796,10.01l6.286,30.571l15.962,12.721l12.416-6.132l3.817,20.968l18.09,15.809l-13.4,6.965
		l5.062,25.305l19.63,18.711l27.604-17.639l4.907,3.986l25.581-15.887l2.794,27.694l19.478,15.337l19.018-13.496l-0.76-26.23
		l17.148,11.176l17.147-11.176l-0.76,26.23l19.021,13.496l19.478-15.337l2.793-27.694l25.58,15.887l4.907-3.986l27.604,17.637
		l19.63-18.709l5.062-25.305l-13.398-6.965l18.088-15.811l3.818-20.966l12.416,6.132l15.961-12.722l6.285-30.571L346.737,183.181z
		 M119.468,181.297l-0.348-5.908l14.929-6.85l5.885,3.245L119.468,181.297z M208.813,180.232l-0.151,23.156
		c0,0-5.666-2.91-10.882-4.284c-5.159-1.357-10.758-1.364-10.88-1.364v0.001c-0.123,0-5.722,0.006-10.881,1.364
		c-5.216,1.373-10.88,4.284-10.88,4.284l-0.153-23.157l-11.359-5.883l13.595-6.184v-15.183c6.028,2.188,12.682,3.409,19.681,3.409
		c7,0,13.649-1.221,19.68-3.408v15.18l13.594,6.185L208.813,180.232z M254.331,181.297l-20.468-9.513l5.886-3.246l14.931,6.851
		L254.331,181.297z"/>
	<polygon fill="#9A3434" points="204.879,263.898 203.311,318.104 222.329,331.598 225.508,276.71 	"/>
	<polygon fill="#661415" points="244.598,288.566 241.805,316.262 222.329,331.598 225.508,276.71 	"/>
	<polygon fill="#9A3434" points="275.086,300.466 302.692,318.104 306.373,293.566 292.877,285.438 	"/>
	<polygon fill="#661415" points="327.385,274.089 306.373,293.566 302.692,318.104 322.323,299.395 	"/>
	<polygon fill="#CC3533" points="296.301,257.936 327.385,274.089 306.373,293.566 292.877,285.438 	"/>
	<polygon fill="#676867" points="208.834,180.232 318.489,234.83 313.983,267.125 296.301,257.936 297.17,250.932 208.682,203.39 	
		"/>
	<polygon fill="#CDCCCC" points="229.284,169.646 208.834,180.232 318.489,234.83 337.764,220.062 	"/>
	<polygon fill="#333333" points="313.983,267.125 332.073,251.316 337.764,220.062 318.489,234.83 	"/>
	<polygon fill="#661415" points="364.268,223.761 348.307,236.48 354.405,205.27 370.555,193.189 	"/>
	<polygon fill="#EF3E3A" points="346.759,183.181 370.555,193.189 354.405,205.27 336.356,196.812 345.38,190.585 	"/>
	<polygon fill="#CC3533" points="254.702,175.389 254.352,181.297 337.764,220.062 335.891,230.349 348.307,236.48 354.405,205.27 
		336.356,196.812 322.653,206.269 	"/>
	<polygon fill="#EF3E3A" points="310.573,127.543 293.86,137.146 315.979,145.27 332.655,135.606 	"/>
	<polygon fill="#661415" points="331.688,151.041 332.655,135.606 315.979,145.27 	"/>
	<polygon fill="#661415" points="262.411,88.204 295.934,75.438 294.694,99.134 260.278,113.598 	"/>
	<polygon fill="#9A3434" points="263.749,72.277 273.356,68.615 295.934,75.438 262.411,88.204 	"/>
	<polygon fill="#EF3E3A" points="209.116,11.358 209.116,2.814 235.844,8.168 235.844,16.019 212.821,20.928 213.081,12.093 	"/>
	<polygon fill="#661415" points="253.17,19.323 254.401,4.123 235.844,8.168 235.844,16.019 	"/>
	<polygon fill="#9A3434" points="230.643,0 209.116,2.814 235.844,8.168 254.401,4.123 	"/>
	<polygon fill="#333333" points="186.91,144.384 209.438,135.562 213.081,12.093 186.91,16.99 	"/>
	<polygon fill="#661415" points="351.371,158.271 328.505,172.765 322.653,206.269 345.38,190.585 	"/>
	<path fill="#EF3E3A" d="M212.821,20.928l-3.383,114.634c0,0-1.015,11.915,3.459,17.843c4.472,5.927,12.707,8.686,12.707,8.686
		l97.049,44.179l5.854-33.504l-85.854-34.592c0,0-3.416-2.058-4.948-4.333c-1.533-2.276-2.074-8.348-2.074-8.348l6.58-97.043
		L212.821,20.928z"/>
	<path fill="#CDCCCC" d="M212.897,153.404c-1.864-2.472-2.774-5.982-3.203-9.238l-3.092-1.296v25.296l13.596,6.184l5.039-2.608
		l0.171-9.721C224.139,161.562,216.963,158.794,212.897,153.404z"/>
	<path fill="#CC3533" d="M242.209,28.449l-6.719,99.094c0,0,0.68,4.021,2.213,6.297c1.532,2.275,4.948,4.333,4.948,4.333
		l85.854,34.592l22.865-14.493l-83.65-30.729c0,0-4.656-2.555-6.052-5.223s-1.392-8.723-1.392-8.723l7.685-91.453L242.209,28.449z"
		/>
	<polygon fill="#333333" points="288.879,135.315 289.608,120.223 271.444,128.911 	"/>
	<path fill="#676867" d="M261.668,122.32c1.396,2.668,6.052,5.223,6.052,5.223l3.725,1.368l18.164-8.688l-19.726-6.326l-9.299,4.256
		C260.786,119.683,261.118,121.266,261.668,122.32z"/>
	<path fill="#676867" d="M209.438,141.572l-2.836,1.298l3.092,1.296C209.577,143.273,209.493,142.398,209.438,141.572z"/>
	<polygon fill="#9A3434" points="235.844,16.019 212.821,20.928 242.209,28.449 267.961,22.145 	"/>
	<polygon fill="#661415" points="297.17,250.932 274.167,269.486 270.18,304.453 292.877,285.438 	"/>
	<path fill="#333333" d="M229.284,169.646l4.604,2.139l5.885-3.245l-14.168-6.449c0,0-0.069-0.023-0.196-0.069l-0.171,9.721
		L229.284,169.646z"/>
	<polygon fill="#661415" points="168.94,263.898 170.51,318.104 151.492,331.598 148.313,276.71 	"/>
	<polygon fill="#9A3434" points="129.222,288.566 132.016,316.262 151.492,331.598 148.313,276.71 	"/>
	<polygon fill="#661415" points="98.733,300.466 71.128,318.104 67.447,293.566 80.943,285.438 	"/>
	<polygon fill="#9A3434" points="46.437,274.089 67.447,293.566 71.128,318.104 51.498,299.395 	"/>
	<polygon fill="#CC3533" points="77.52,257.936 46.437,274.089 67.447,293.566 80.943,285.438 	"/>
	<polygon fill="#333333" points="164.985,180.232 55.332,234.83 59.838,267.125 77.52,257.936 76.649,250.932 165.139,203.39 	"/>
	<polygon fill="#CDCCCC" points="144.537,169.646 164.985,180.232 55.332,234.83 36.057,220.062 	"/>
	<polygon fill="#676867" points="59.838,267.125 41.748,251.316 36.057,220.062 55.332,234.83 	"/>
	<polygon fill="#CC3533" points="9.553,223.761 25.514,236.48 19.416,205.27 3.266,193.189 	"/>
	<polygon fill="#EF3E3A" points="27.062,183.181 3.266,193.189 19.416,205.27 37.465,196.812 28.441,190.585 	"/>
	<polygon fill="#661415" points="119.12,175.389 119.468,181.297 36.057,220.062 37.93,230.349 25.514,236.48 19.416,205.27 
		37.465,196.812 51.167,206.269 	"/>
	<polygon fill="#EF3E3A" points="63.248,127.543 79.961,137.146 57.843,145.27 41.166,135.606 	"/>
	<polygon fill="#CC3533" points="42.132,151.041 41.166,135.606 57.843,145.27 	"/>
	<polygon fill="#EF3E3A" points="111.41,88.204 77.887,75.438 79.127,99.134 113.543,113.598 	"/>
	<polygon fill="#CC3533" points="110.072,72.277 100.465,68.615 77.887,75.438 111.41,88.204 	"/>
	<polygon fill="#661415" points="164.705,11.358 164.705,2.814 137.977,8.168 137.977,16.019 161.001,20.928 160.74,12.093 	"/>
	<polygon fill="#EF3E3A" points="120.649,19.323 119.419,4.123 137.977,8.168 137.977,16.019 	"/>
	<polygon fill="#9A3434" points="143.178,0 164.705,2.814 137.977,8.168 119.419,4.123 	"/>
	<polygon fill="#676867" points="186.91,6.953 160.74,12.093 186.91,16.99 213.081,12.093 	"/>
	<polygon fill="#CDCCCC" points="186.91,144.384 164.383,135.562 160.74,12.093 186.91,16.99 	"/>
	<polygon fill="#EF3E3A" points="22.449,158.271 45.317,172.765 51.167,206.269 28.441,190.585 	"/>
	<path fill="#661415" d="M161.001,20.928l3.382,114.634c0,0,1.015,11.915-3.457,17.843c-4.474,5.927-12.707,8.686-12.707,8.686
		L51.167,206.27l-5.851-33.504l85.853-34.592c0,0,3.415-2.058,4.947-4.333c1.532-2.276,2.074-8.348,2.074-8.348l-6.58-97.043
		L161.001,20.928z"/>
	<path fill="#333333" d="M164.126,144.166c-0.428,3.256-1.337,6.767-3.2,9.238c-4.066,5.39-11.242,8.157-12.513,8.616l0.171,9.721
		l5.04,2.608l13.596-6.184V142.87L164.126,144.166z"/>
	<path fill="#EF3E3A" d="M131.611,28.449l6.72,99.094c0,0-0.682,4.021-2.214,6.297c-1.532,2.275-4.947,4.333-4.947,4.333
		l-85.853,34.592L22.45,158.272l83.65-30.729c0,0,4.658-2.555,6.052-5.223c1.396-2.668,1.392-8.723,1.392-8.723l-7.685-91.453
		L131.611,28.449z"/>
	<polygon fill="#CDCCCC" points="84.941,135.315 84.213,120.223 102.379,128.911 	"/>
	<path fill="#676867" d="M112.152,122.32c-1.394,2.668-6.052,5.223-6.052,5.223l-3.723,1.368l-18.166-8.688l19.727-6.326
		l9.297,4.256C113.034,119.683,112.703,121.266,112.152,122.32z"/>
	<path fill="#676867" d="M164.382,141.572l2.838,1.298l-3.094,1.296C164.244,143.273,164.327,142.398,164.382,141.572z"/>
	<polygon fill="#9A3434" points="137.977,16.019 161.001,20.928 131.611,28.449 105.859,22.145 	"/>
	<polygon fill="#EF3E3A" points="76.649,250.932 99.654,269.486 103.641,304.453 80.943,285.438 	"/>
	<path fill="#661415" d="M274.167,269.486c0,0-68.379-41.466-73.153-43.708c-6.354-2.984-9.08-4.522-14.103-4.522
		c-5.021,0-7.746,1.538-14.103,4.522c-4.775,2.242-73.154,43.708-73.154,43.708l-0.15-0.121l4.139,35.088l65.3-40.555
		c0,0,9.281-5.584,11.621-6.793c2.338-1.209,3.737-1.658,6.35-1.658c2.609,0,4.01,0.449,6.351,1.658
		c2.338,1.209,11.618,6.793,11.618,6.793l65.302,40.555l4.114-35.068L274.167,269.486z"/>
	<path fill="#EF3E3A" d="M208.682,203.39c0,0-5.664-2.911-10.882-4.284c-5.215-1.373-10.891-1.364-10.891-1.364
		s-5.675-0.009-10.893,1.364c-5.217,1.373-10.88,4.284-10.88,4.284l-88.489,47.542l23.005,18.555c0,0,68.379-41.465,73.154-43.708
		c6.354-2.984,9.08-4.522,14.103-4.522c5.021,0,7.747,1.538,14.103,4.522c4.774,2.242,73.153,43.708,73.153,43.708l23.004-18.555
		L208.682,203.39z"/>
	<path fill="#CDCCCC" d="M144.537,169.646l-4.604,2.139l-5.885-3.245l14.169-6.449c0,0,0.069-0.023,0.195-0.069l0.171,9.721
		L144.537,169.646z"/>
	<path fill="#333333" d="M186.91,255.447v47.6l17.16-11.184l0.81-27.965c0,0-9.28-5.584-11.618-6.793
		C190.92,255.896,189.52,255.447,186.91,255.447z"/>
	<path fill="#CDCCCC" d="M186.899,255.447v47.6l-17.16-11.184l-0.81-27.965c0,0,9.281-5.584,11.619-6.793
		C182.889,255.896,184.288,255.447,186.899,255.447z"/>
	<path fill="#661415" d="M209.415,141.572c0.004,0.014,0.004,0.028,0.004,0.043c-0.228-3.413-0.004-6.054-0.004-6.054l-22.516,8.817
		l-22.518-8.817c0,0,0.226,2.641-0.004,6.054c0.001-0.015,0.003-0.029,0.003-0.043l2.837,1.298v10.113
		c6.029,2.188,12.683,3.409,19.682,3.409c7,0,13.649-1.221,19.68-3.408V142.87L209.415,141.572z"/>
</g>
</svg>
